<svg xmlns="http://www.w3.org/2000/svg" xmlns:xlink="http://www.w3.org/1999/xlink" width="2000" zoomAndPan="magnify" viewBox="0 0 1500 1499.999933" height="2000" preserveAspectRatio="xMidYMid meet" version="1.0"><defs><clipPath id="2883ac156d"><path d="M 150 150 L 1350 150 L 1350 1350 L 150 1350 Z M 150 150 " clip-rule="nonzero"/></clipPath><clipPath id="a513629372"><path d="M 750 150 C 418.628906 150 150 418.628906 150 750 C 150 1081.371094 418.628906 1350 750 1350 C 1081.371094 1350 1350 1081.371094 1350 750 C 1350 418.628906 1081.371094 150 750 150 Z M 750 150 " clip-rule="nonzero"/></clipPath><clipPath id="d2d37f67e8"><path d="M 0 0 L 1200 0 L 1200 1200 L 0 1200 Z M 0 0 " clip-rule="nonzero"/></clipPath><clipPath id="08c13b70b5"><path d="M 600 0 C 268.628906 0 0 268.628906 0 600 C 0 931.371094 268.628906 1200 600 1200 C 931.371094 1200 1200 931.371094 1200 600 C 1200 268.628906 931.371094 0 600 0 Z M 600 0 " clip-rule="nonzero"/></clipPath><linearGradient x1="0" gradientTransform="matrix(4.6875, 0, 0, 4.6875, 0.00002043, -0.00003292)" y1="128" x2="256" gradientUnits="userSpaceOnUse" y2="128" id="b45afb0937"><stop stop-opacity="1" stop-color="rgb(100%, 19.219971%, 19.219971%)" offset="0"/><stop stop-opacity="1" stop-color="rgb(100%, 19.366455%, 19.262695%)" offset="0.0078125"/><stop stop-opacity="1" stop-color="rgb(100%, 19.659424%, 19.348145%)" offset="0.015625"/><stop stop-opacity="1" stop-color="rgb(100%, 19.953918%, 19.433594%)" offset="0.0234375"/><stop stop-opacity="1" stop-color="rgb(100%, 20.248413%, 19.519043%)" offset="0.03125"/><stop stop-opacity="1" stop-color="rgb(100%, 20.541382%, 19.604492%)" offset="0.0390625"/><stop stop-opacity="1" stop-color="rgb(100%, 20.835876%, 19.691467%)" offset="0.046875"/><stop stop-opacity="1" stop-color="rgb(100%, 21.130371%, 19.776917%)" offset="0.0546875"/><stop stop-opacity="1" stop-color="rgb(100%, 21.424866%, 19.862366%)" offset="0.0625"/><stop stop-opacity="1" stop-color="rgb(100%, 21.717834%, 19.947815%)" offset="0.0703125"/><stop stop-opacity="1" stop-color="rgb(100%, 22.012329%, 20.033264%)" offset="0.078125"/><stop stop-opacity="1" stop-color="rgb(100%, 22.306824%, 20.120239%)" offset="0.0859375"/><stop stop-opacity="1" stop-color="rgb(100%, 22.599792%, 20.205688%)" offset="0.09375"/><stop stop-opacity="1" stop-color="rgb(100%, 22.894287%, 20.291138%)" offset="0.101562"/><stop stop-opacity="1" stop-color="rgb(100%, 23.188782%, 20.376587%)" offset="0.109375"/><stop stop-opacity="1" stop-color="rgb(100%, 23.483276%, 20.463562%)" offset="0.117188"/><stop stop-opacity="1" stop-color="rgb(100%, 23.776245%, 20.549011%)" offset="0.125"/><stop stop-opacity="1" stop-color="rgb(100%, 24.07074%, 20.63446%)" offset="0.132812"/><stop stop-opacity="1" stop-color="rgb(100%, 24.365234%, 20.71991%)" offset="0.140625"/><stop stop-opacity="1" stop-color="rgb(100%, 24.658203%, 20.805359%)" offset="0.148438"/><stop stop-opacity="1" stop-color="rgb(100%, 24.952698%, 20.892334%)" offset="0.15625"/><stop stop-opacity="1" stop-color="rgb(100%, 25.247192%, 20.977783%)" offset="0.164062"/><stop stop-opacity="1" stop-color="rgb(100%, 25.541687%, 21.063232%)" offset="0.171875"/><stop stop-opacity="1" stop-color="rgb(100%, 25.834656%, 21.148682%)" offset="0.179688"/><stop stop-opacity="1" stop-color="rgb(100%, 26.12915%, 21.235657%)" offset="0.1875"/><stop stop-opacity="1" stop-color="rgb(100%, 26.423645%, 21.321106%)" offset="0.195312"/><stop stop-opacity="1" stop-color="rgb(100%, 26.716614%, 21.406555%)" offset="0.203125"/><stop stop-opacity="1" stop-color="rgb(100%, 27.011108%, 21.492004%)" offset="0.210938"/><stop stop-opacity="1" stop-color="rgb(100%, 27.305603%, 21.577454%)" offset="0.21875"/><stop stop-opacity="1" stop-color="rgb(100%, 27.600098%, 21.664429%)" offset="0.226562"/><stop stop-opacity="1" stop-color="rgb(100%, 27.893066%, 21.749878%)" offset="0.234375"/><stop stop-opacity="1" stop-color="rgb(100%, 28.187561%, 21.835327%)" offset="0.242188"/><stop stop-opacity="1" stop-color="rgb(100%, 28.482056%, 21.920776%)" offset="0.25"/><stop stop-opacity="1" stop-color="rgb(100%, 28.775024%, 22.006226%)" offset="0.257812"/><stop stop-opacity="1" stop-color="rgb(100%, 29.069519%, 22.093201%)" offset="0.265625"/><stop stop-opacity="1" stop-color="rgb(100%, 29.364014%, 22.17865%)" offset="0.273438"/><stop stop-opacity="1" stop-color="rgb(100%, 29.658508%, 22.264099%)" offset="0.28125"/><stop stop-opacity="1" stop-color="rgb(100%, 29.951477%, 22.349548%)" offset="0.289062"/><stop stop-opacity="1" stop-color="rgb(100%, 30.245972%, 22.436523%)" offset="0.296875"/><stop stop-opacity="1" stop-color="rgb(100%, 30.540466%, 22.521973%)" offset="0.304688"/><stop stop-opacity="1" stop-color="rgb(100%, 30.833435%, 22.607422%)" offset="0.3125"/><stop stop-opacity="1" stop-color="rgb(100%, 31.12793%, 22.692871%)" offset="0.320312"/><stop stop-opacity="1" stop-color="rgb(100%, 31.422424%, 22.77832%)" offset="0.328125"/><stop stop-opacity="1" stop-color="rgb(100%, 31.716919%, 22.865295%)" offset="0.335938"/><stop stop-opacity="1" stop-color="rgb(100%, 32.009888%, 22.950745%)" offset="0.34375"/><stop stop-opacity="1" stop-color="rgb(100%, 32.304382%, 23.036194%)" offset="0.351562"/><stop stop-opacity="1" stop-color="rgb(100%, 32.598877%, 23.121643%)" offset="0.359375"/><stop stop-opacity="1" stop-color="rgb(100%, 32.891846%, 23.208618%)" offset="0.367188"/><stop stop-opacity="1" stop-color="rgb(100%, 33.18634%, 23.294067%)" offset="0.375"/><stop stop-opacity="1" stop-color="rgb(100%, 33.480835%, 23.379517%)" offset="0.382812"/><stop stop-opacity="1" stop-color="rgb(100%, 33.77533%, 23.464966%)" offset="0.390625"/><stop stop-opacity="1" stop-color="rgb(100%, 34.068298%, 23.550415%)" offset="0.398438"/><stop stop-opacity="1" stop-color="rgb(100%, 34.362793%, 23.63739%)" offset="0.40625"/><stop stop-opacity="1" stop-color="rgb(100%, 34.657288%, 23.722839%)" offset="0.414062"/><stop stop-opacity="1" stop-color="rgb(100%, 34.951782%, 23.808289%)" offset="0.421875"/><stop stop-opacity="1" stop-color="rgb(100%, 35.244751%, 23.893738%)" offset="0.429688"/><stop stop-opacity="1" stop-color="rgb(100%, 35.539246%, 23.979187%)" offset="0.4375"/><stop stop-opacity="1" stop-color="rgb(100%, 35.83374%, 24.066162%)" offset="0.445312"/><stop stop-opacity="1" stop-color="rgb(100%, 36.126709%, 24.151611%)" offset="0.453125"/><stop stop-opacity="1" stop-color="rgb(100%, 36.421204%, 24.237061%)" offset="0.460938"/><stop stop-opacity="1" stop-color="rgb(100%, 36.715698%, 24.32251%)" offset="0.46875"/><stop stop-opacity="1" stop-color="rgb(100%, 37.010193%, 24.409485%)" offset="0.476562"/><stop stop-opacity="1" stop-color="rgb(100%, 37.303162%, 24.494934%)" offset="0.484375"/><stop stop-opacity="1" stop-color="rgb(100%, 37.597656%, 24.580383%)" offset="0.492188"/><stop stop-opacity="1" stop-color="rgb(100%, 37.892151%, 24.665833%)" offset="0.5"/><stop stop-opacity="1" stop-color="rgb(100%, 38.18512%, 24.751282%)" offset="0.507812"/><stop stop-opacity="1" stop-color="rgb(100%, 38.479614%, 24.838257%)" offset="0.515625"/><stop stop-opacity="1" stop-color="rgb(100%, 38.774109%, 24.923706%)" offset="0.523438"/><stop stop-opacity="1" stop-color="rgb(100%, 39.068604%, 25.009155%)" offset="0.53125"/><stop stop-opacity="1" stop-color="rgb(100%, 39.361572%, 25.094604%)" offset="0.539062"/><stop stop-opacity="1" stop-color="rgb(100%, 39.656067%, 25.18158%)" offset="0.546875"/><stop stop-opacity="1" stop-color="rgb(100%, 39.950562%, 25.267029%)" offset="0.554688"/><stop stop-opacity="1" stop-color="rgb(100%, 40.24353%, 25.352478%)" offset="0.5625"/><stop stop-opacity="1" stop-color="rgb(100%, 40.538025%, 25.437927%)" offset="0.570312"/><stop stop-opacity="1" stop-color="rgb(100%, 40.83252%, 25.523376%)" offset="0.578125"/><stop stop-opacity="1" stop-color="rgb(100%, 41.127014%, 25.610352%)" offset="0.585938"/><stop stop-opacity="1" stop-color="rgb(100%, 41.419983%, 25.695801%)" offset="0.59375"/><stop stop-opacity="1" stop-color="rgb(100%, 41.714478%, 25.78125%)" offset="0.601562"/><stop stop-opacity="1" stop-color="rgb(100%, 42.008972%, 25.866699%)" offset="0.609375"/><stop stop-opacity="1" stop-color="rgb(100%, 42.301941%, 25.952148%)" offset="0.617188"/><stop stop-opacity="1" stop-color="rgb(100%, 42.596436%, 26.039124%)" offset="0.625"/><stop stop-opacity="1" stop-color="rgb(100%, 42.89093%, 26.124573%)" offset="0.632812"/><stop stop-opacity="1" stop-color="rgb(100%, 43.185425%, 26.210022%)" offset="0.640625"/><stop stop-opacity="1" stop-color="rgb(100%, 43.478394%, 26.295471%)" offset="0.648438"/><stop stop-opacity="1" stop-color="rgb(100%, 43.772888%, 26.382446%)" offset="0.65625"/><stop stop-opacity="1" stop-color="rgb(100%, 44.067383%, 26.467896%)" offset="0.664062"/><stop stop-opacity="1" stop-color="rgb(100%, 44.360352%, 26.553345%)" offset="0.671875"/><stop stop-opacity="1" stop-color="rgb(100%, 44.654846%, 26.638794%)" offset="0.679688"/><stop stop-opacity="1" stop-color="rgb(100%, 44.949341%, 26.724243%)" offset="0.6875"/><stop stop-opacity="1" stop-color="rgb(100%, 45.243835%, 26.811218%)" offset="0.695312"/><stop stop-opacity="1" stop-color="rgb(100%, 45.536804%, 26.896667%)" offset="0.703125"/><stop stop-opacity="1" stop-color="rgb(100%, 45.831299%, 26.982117%)" offset="0.710938"/><stop stop-opacity="1" stop-color="rgb(100%, 46.125793%, 27.067566%)" offset="0.71875"/><stop stop-opacity="1" stop-color="rgb(100%, 46.418762%, 27.154541%)" offset="0.726562"/><stop stop-opacity="1" stop-color="rgb(100%, 46.713257%, 27.23999%)" offset="0.734375"/><stop stop-opacity="1" stop-color="rgb(100%, 47.007751%, 27.325439%)" offset="0.742188"/><stop stop-opacity="1" stop-color="rgb(100%, 47.302246%, 27.410889%)" offset="0.75"/><stop stop-opacity="1" stop-color="rgb(100%, 47.595215%, 27.496338%)" offset="0.757812"/><stop stop-opacity="1" stop-color="rgb(100%, 47.889709%, 27.583313%)" offset="0.765625"/><stop stop-opacity="1" stop-color="rgb(100%, 48.184204%, 27.668762%)" offset="0.773438"/><stop stop-opacity="1" stop-color="rgb(100%, 48.477173%, 27.754211%)" offset="0.78125"/><stop stop-opacity="1" stop-color="rgb(100%, 48.771667%, 27.839661%)" offset="0.789062"/><stop stop-opacity="1" stop-color="rgb(100%, 49.066162%, 27.92511%)" offset="0.796875"/><stop stop-opacity="1" stop-color="rgb(100%, 49.360657%, 28.012085%)" offset="0.804688"/><stop stop-opacity="1" stop-color="rgb(100%, 49.653625%, 28.097534%)" offset="0.8125"/><stop stop-opacity="1" stop-color="rgb(100%, 49.94812%, 28.182983%)" offset="0.820312"/><stop stop-opacity="1" stop-color="rgb(100%, 50.242615%, 28.268433%)" offset="0.828125"/><stop stop-opacity="1" stop-color="rgb(100%, 50.537109%, 28.355408%)" offset="0.835938"/><stop stop-opacity="1" stop-color="rgb(100%, 50.830078%, 28.440857%)" offset="0.84375"/><stop stop-opacity="1" stop-color="rgb(100%, 51.124573%, 28.526306%)" offset="0.851562"/><stop stop-opacity="1" stop-color="rgb(100%, 51.419067%, 28.611755%)" offset="0.859375"/><stop stop-opacity="1" stop-color="rgb(100%, 51.712036%, 28.697205%)" offset="0.867188"/><stop stop-opacity="1" stop-color="rgb(100%, 52.006531%, 28.78418%)" offset="0.875"/><stop stop-opacity="1" stop-color="rgb(100%, 52.301025%, 28.869629%)" offset="0.882812"/><stop stop-opacity="1" stop-color="rgb(100%, 52.59552%, 28.955078%)" offset="0.890625"/><stop stop-opacity="1" stop-color="rgb(100%, 52.888489%, 29.040527%)" offset="0.898438"/><stop stop-opacity="1" stop-color="rgb(100%, 53.182983%, 29.127502%)" offset="0.90625"/><stop stop-opacity="1" stop-color="rgb(100%, 53.477478%, 29.212952%)" offset="0.914062"/><stop stop-opacity="1" stop-color="rgb(100%, 53.770447%, 29.298401%)" offset="0.921875"/><stop stop-opacity="1" stop-color="rgb(100%, 54.064941%, 29.38385%)" offset="0.929688"/><stop stop-opacity="1" stop-color="rgb(100%, 54.359436%, 29.469299%)" offset="0.9375"/><stop stop-opacity="1" stop-color="rgb(100%, 54.653931%, 29.556274%)" offset="0.945312"/><stop stop-opacity="1" stop-color="rgb(100%, 54.946899%, 29.641724%)" offset="0.953125"/><stop stop-opacity="1" stop-color="rgb(100%, 55.241394%, 29.727173%)" offset="0.960938"/><stop stop-opacity="1" stop-color="rgb(100%, 55.535889%, 29.812622%)" offset="0.96875"/><stop stop-opacity="1" stop-color="rgb(100%, 55.828857%, 29.899597%)" offset="0.976562"/><stop stop-opacity="1" stop-color="rgb(100%, 56.123352%, 29.985046%)" offset="0.984375"/><stop stop-opacity="1" stop-color="rgb(100%, 56.417847%, 30.070496%)" offset="0.992188"/><stop stop-opacity="1" stop-color="rgb(100%, 56.712341%, 30.155945%)" offset="1"/></linearGradient><clipPath id="56c678361b"><rect x="0" width="1200" y="0" height="1200"/></clipPath><clipPath id="5b8ad8b7d4"><path d="M 202.625 202.625 L 1297.375 202.625 L 1297.375 1297.375 L 202.625 1297.375 Z M 202.625 202.625 " clip-rule="nonzero"/></clipPath><clipPath id="4ae84c9761"><path d="M 750 202.625 C 447.691406 202.625 202.625 447.691406 202.625 750 C 202.625 1052.308594 447.691406 1297.375 750 1297.375 C 1052.308594 1297.375 1297.375 1052.308594 1297.375 750 C 1297.375 447.691406 1052.308594 202.625 750 202.625 Z M 750 202.625 " clip-rule="nonzero"/></clipPath><clipPath id="2ee339bbff"><path d="M 0.625 0.625 L 1095.375 0.625 L 1095.375 1095.375 L 0.625 1095.375 Z M 0.625 0.625 " clip-rule="nonzero"/></clipPath><clipPath id="cf2d8bf14a"><path d="M 548 0.625 C 245.691406 0.625 0.625 245.691406 0.625 548 C 0.625 850.308594 245.691406 1095.375 548 1095.375 C 850.308594 1095.375 1095.375 850.308594 1095.375 548 C 1095.375 245.691406 850.308594 0.625 548 0.625 Z M 548 0.625 " clip-rule="nonzero"/></clipPath><clipPath id="6a6a97e95c"><rect x="0" width="1096" y="0" height="1096"/></clipPath><clipPath id="440e85cd05"><path d="M 301 294.171875 L 1200 294.171875 L 1200 1206.171875 L 301 1206.171875 Z M 301 294.171875 " clip-rule="nonzero"/></clipPath></defs><g clip-path="url(#2883ac156d)"><g clip-path="url(#a513629372)"><g transform="matrix(1, 0, 0, 1, 150, 150)"><g clip-path="url(#56c678361b)"><g clip-path="url(#d2d37f67e8)"><g clip-path="url(#08c13b70b5)"><rect x="-480" fill="url(#b45afb0937)" width="2160" height="2159.999904" y="-479.999985"/></g></g></g></g></g></g><g clip-path="url(#5b8ad8b7d4)"><g clip-path="url(#4ae84c9761)"><g transform="matrix(1, 0, 0, 1, 202, 202)"><g clip-path="url(#6a6a97e95c)"><g clip-path="url(#2ee339bbff)"><g clip-path="url(#cf2d8bf14a)"><path fill="#000000" d="M 0.625 0.625 L 1095.375 0.625 L 1095.375 1095.375 L 0.625 1095.375 Z M 0.625 0.625 " fill-opacity="1" fill-rule="nonzero"/></g></g></g></g></g></g><g clip-path="url(#440e85cd05)"><path fill="#fcfcfc" d="M 668.214844 674.894531 C 665.746094 697.417969 665.308594 723.25 679.015625 748.964844 C 667.3125 683.175781 706.121094 659.019531 703.847656 609.683594 C 701.804688 633.179688 688.449219 650.992188 669.410156 654.820312 C 651.378906 626.261719 610.054688 664.671875 580.929688 653.820312 C 587.3125 669.980469 600.574219 682.578125 615.585938 688.402344 C 613.332031 685.382812 612.003906 681.628906 612.003906 677.570312 C 612.003906 672.117188 614.40625 667.234375 618.207031 663.910156 C 617.710938 665.316406 617.445312 666.835938 617.445312 668.40625 C 617.445312 675.949219 623.566406 682.054688 631.097656 682.054688 C 638.640625 682.054688 644.75 675.949219 644.75 668.40625 C 644.75 667.84375 644.710938 667.273438 644.644531 666.714844 C 646.90625 669.742188 648.246094 673.496094 648.246094 677.570312 C 648.246094 682.976562 645.878906 687.839844 642.117188 691.15625 C 650.839844 690.007812 661.648438 684.210938 668.214844 674.894531 Z M 832.164062 674.894531 C 834.625 697.417969 835.0625 723.25 821.363281 748.964844 C 833.066406 683.175781 794.269531 659.019531 796.523438 609.683594 C 798.574219 633.179688 811.929688 650.992188 830.960938 654.820312 C 848.988281 626.261719 890.324219 664.671875 919.453125 653.820312 C 913.066406 669.980469 899.804688 682.578125 884.796875 688.402344 C 887.046875 685.382812 888.378906 681.628906 888.378906 677.570312 C 888.378906 672.117188 885.972656 667.234375 882.164062 663.910156 C 882.667969 665.316406 882.933594 666.835938 882.933594 668.40625 C 882.933594 675.949219 876.824219 682.054688 869.28125 682.054688 C 861.738281 682.054688 855.628906 675.949219 855.628906 668.40625 C 855.628906 667.84375 855.667969 667.273438 855.734375 666.714844 C 853.472656 669.742188 852.125 673.496094 852.125 677.570312 C 852.125 682.976562 854.5 687.839844 858.253906 691.15625 C 849.542969 690.007812 838.71875 684.210938 832.164062 674.894531 Z M 750.191406 503.039062 C 731.523438 457.980469 699.601562 420.425781 657.015625 388.90625 C 691.566406 434.164062 714.5 482.328125 724.101562 533.828125 C 702.15625 514.058594 660.386719 496.085938 624.675781 493.917969 C 599.386719 544.078125 559.136719 587.957031 517.761719 618.757812 C 497.632812 691.148438 532.117188 776.886719 598.105469 807.351562 C 613.191406 788.226562 596.414062 765.210938 588.15625 746.398438 C 609.855469 773.570312 625.816406 784.929688 617.609375 812.863281 C 615.9375 818.5625 613.246094 824.925781 609.410156 832.269531 C 599.964844 846.757812 592.945312 863.722656 591.464844 878.429688 C 603.679688 886.953125 622.320312 892.28125 640.949219 894.277344 C 623.648438 897.410156 606.855469 897.734375 590.410156 895.96875 C 595.226562 917.789062 613.789062 935.164062 633.777344 944.863281 C 621.976562 942.441406 610.902344 938.878906 600.394531 934.375 C 621.132812 973.78125 670.863281 992.222656 711.640625 973.335938 C 751.757812 954.742188 750.742188 906.039062 710.699219 887.910156 C 703.402344 884.605469 696.003906 882.933594 688.847656 880.433594 C 666.675781 872.671875 651.96875 855.144531 665.03125 831.824219 C 661.679688 845.066406 667.140625 856.835938 683.957031 856.304688 C 689.046875 856.144531 694.367188 855.328125 699.421875 854.613281 C 715.164062 852.382812 722.117188 853.710938 734.875 863.335938 C 743.816406 870.078125 756.566406 870.078125 765.511719 863.335938 C 778.261719 853.710938 785.214844 852.382812 800.96875 854.613281 C 806.023438 855.328125 811.332031 856.144531 816.425781 856.304688 C 833.238281 856.835938 838.703125 845.066406 835.347656 831.824219 C 848.402344 855.144531 833.703125 872.671875 811.53125 880.433594 C 804.378906 882.933594 796.976562 884.605469 789.691406 887.910156 C 749.628906 906.039062 748.613281 954.742188 788.742188 973.335938 C 829.515625 992.222656 879.238281 973.78125 899.976562 934.375 C 889.480469 938.878906 878.394531 942.441406 866.59375 944.863281 C 886.582031 935.164062 905.152344 917.789062 909.960938 895.96875 C 893.527344 897.734375 876.730469 897.410156 859.429688 894.277344 C 878.058594 892.28125 896.691406 886.953125 908.90625 878.429688 C 907.433594 863.722656 900.402344 846.757812 890.96875 832.269531 C 887.132812 824.925781 884.445312 818.5625 882.761719 812.863281 C 874.554688 784.929688 890.535156 773.570312 912.210938 746.398438 C 903.957031 765.210938 887.191406 788.226562 902.277344 807.351562 C 968.261719 776.886719 1002.738281 691.148438 982.617188 618.757812 C 941.234375 587.957031 900.992188 544.078125 875.714844 493.917969 C 839.992188 496.085938 798.210938 514.058594 776.277344 533.828125 C 785.871094 482.328125 808.804688 434.164062 843.355469 388.90625 C 800.785156 420.425781 768.867188 457.980469 750.191406 503.039062 Z M 750.191406 1244.160156 C 718.933594 1193.507812 622.679688 1163.925781 621.636719 1070.035156 C 608.394531 1103.191406 609.800781 1131.453125 615.300781 1158.359375 C 537.105469 1100.3125 501.707031 990.265625 548.476562 899.75 C 524.660156 870.8125 510.117188 836.714844 508.664062 795.316406 C 504.414062 833.835938 509.832031 867.285156 525.636719 895.273438 C 497.347656 944.597656 487.542969 999.554688 493.40625 1037.792969 C 448.375 1007.34375 414.308594 960.53125 394.539062 906.636719 C 395.6875 896.308594 396.285156 885.820312 396.285156 875.191406 C 396.285156 816.214844 378.199219 761.476562 347.265625 716.199219 L 305.199219 761.914062 C 294.292969 714.382812 304.535156 635.914062 360.679688 602.824219 C 440.214844 579.378906 519.917969 538.863281 574.878906 470.964844 C 522.132812 441.914062 476.03125 440.585938 488.683594 522.007812 C 445.324219 541.597656 398.996094 555.078125 356.175781 561.007812 C 379.042969 478.824219 430.316406 411.277344 492.40625 376.148438 L 597.523438 402.992188 L 526.378906 353.800781 C 593.960938 314.046875 672.082031 294.171875 750.191406 294.171875 C 828.300781 294.171875 906.40625 314.046875 974 353.800781 L 902.84375 402.992188 L 1007.972656 376.148438 C 1070.054688 411.277344 1121.335938 478.824219 1144.203125 561.007812 C 1101.386719 555.078125 1055.046875 541.597656 1011.695312 522.007812 C 1024.351562 440.585938 978.238281 441.914062 925.492188 470.964844 C 980.460938 538.863281 1060.15625 579.378906 1139.691406 602.824219 C 1195.835938 635.914062 1206.085938 714.382812 1195.179688 761.914062 L 1153.113281 716.199219 C 1122.179688 761.476562 1104.09375 816.214844 1104.09375 875.191406 C 1104.09375 885.820312 1104.691406 896.308594 1105.832031 906.636719 C 1086.070312 960.53125 1052.003906 1007.34375 1006.976562 1037.792969 C 1012.835938 999.554688 1003.03125 944.597656 974.742188 895.273438 C 990.539062 867.285156 995.964844 833.835938 991.71875 795.316406 C 990.253906 836.714844 975.71875 870.8125 951.902344 899.75 C 998.671875 990.265625 963.273438 1100.3125 885.082031 1158.359375 C 890.570312 1131.453125 891.988281 1103.191406 878.753906 1070.035156 C 877.691406 1163.925781 781.445312 1193.507812 750.191406 1244.160156 Z M 730.535156 986.578125 C 705.550781 995.519531 675.300781 1016.074219 648.464844 1017.9375 C 686.730469 1103.429688 813.640625 1103.429688 851.90625 1017.9375 C 825.070312 1016.074219 794.832031 995.519531 769.84375 986.578125 C 754.863281 981.230469 745.515625 981.230469 730.535156 986.578125 " fill-opacity="1" fill-rule="evenodd"/></g></svg>